<?xml version="1.0" encoding="utf-8"?>
<!-- Generator: Adobe Illustrator 16.0.0, SVG Export Plug-In . SVG Version: 6.00 Build 0)  -->
<!DOCTYPE svg PUBLIC "-//W3C//DTD SVG 1.1//EN" "../../../../www.w3.org/Graphics/SVG/1.1/DTD/svg11.dtd">
<svg version="1.1" id="Layer_1" xmlns="http://www.w3.org/2000/svg" xmlns:xlink="../../../../www.w3.org/1999/xlink" x="0px" y="0px"
	 width="117.917px" height="69.333px" viewBox="0 0 117.917 69.333" enable-background="new 0 0 117.917 69.333"
	 xml:space="preserve">
<g>
	<path d="M8.19,36.472c-0.982,1.556-1.707,2.627-2.174,3.218c-0.582,0.735-1.084,1.299-1.507,1.687C4.029,41.792,3.583,42,3.172,42
		c-0.4,0-0.708-0.235-0.924-0.706c-0.171-0.359-0.257-0.761-0.257-1.201c0-1.461,0.742-3.472,2.227-6.029
		c1.347-2.319,2.346-3.478,2.997-3.478c0.16,0,0.314,0.088,0.463,0.262c0.137,0.159,0.206,0.348,0.206,0.562
		c0,0.294-0.223,0.704-0.668,1.226c-0.948,1.099-1.77,2.337-2.466,3.716c-0.594,1.18-0.89,1.95-0.89,2.313
		c0,0.27,0.103,0.401,0.309,0.401c0.685,0,2.169-1.741,4.453-5.224c0.742-1.125,1.193-1.775,1.352-1.95
		c0.296-0.322,0.6-0.482,0.908-0.482c0.206,0,0.382,0.066,0.532,0.201c0.125,0.133,0.188,0.275,0.188,0.422
		c0,0.16-0.274,0.837-0.821,2.029c-1.245,2.572-1.867,4.308-1.867,5.206c0,0.349,0.12,0.521,0.359,0.521
		c0.411,0,0.976-0.557,1.695-1.667c0.685-1.047,1.319-2.374,1.901-3.979c0.251-0.697,0.473-1.615,0.667-2.753
		c0.228-1.3,0.685-1.95,1.371-1.95c0.388,0,0.582,0.255,0.582,0.764c0,1.755-0.833,4.166-2.5,7.235
		c-1.735,3.201-3.197,4.802-4.384,4.802c-0.88,0-1.319-0.636-1.319-1.909C7.283,39.287,7.585,38,8.19,36.472z"/>
	<path d="M20.342,29.119c0.936,0,1.404,0.669,1.404,2.009c0,1.784-0.702,4.04-2.106,6.773c-1.53,2.961-3.008,4.44-4.436,4.44
		c-0.663,0-1.148-0.36-1.456-1.086c-0.16-0.361-0.24-0.797-0.24-1.304c0-1.717,0.503-3.579,1.507-5.587
		c0.936-1.863,2.037-3.31,3.305-4.341C19.064,29.42,19.738,29.119,20.342,29.119z M18.561,36.715
		c-0.285-0.269-0.429-0.476-0.429-0.623c0-0.107,0.184-0.402,0.548-0.885c1.027-1.353,1.541-2.445,1.541-3.275
		c0-0.107-0.028-0.215-0.085-0.321c-0.091-0.2-0.234-0.302-0.428-0.302c-0.366,0-0.902,0.416-1.61,1.248
		c-0.913,1.071-1.61,2.177-2.09,3.315c-0.559,1.301-0.838,2.378-0.838,3.235c0,0.229,0.052,0.43,0.154,0.603
		c0.148,0.242,0.336,0.362,0.565,0.362c0.548,0,1.136-0.482,1.764-1.447c0.274-0.402,0.497-0.816,0.667-1.246
		C18.492,36.951,18.573,36.729,18.561,36.715z"/>
	<path d="M23.23,35.468c1.119-1.406,2.409-2.778,3.871-4.118c0.525-0.483,1.085-0.931,1.679-1.347
		c0.296-0.201,0.485-0.301,0.565-0.301c0.171,0,0.342,0.147,0.514,0.442c0.103,0.159,0.154,0.307,0.154,0.441
		c0,0.241-0.217,0.569-0.65,0.985c-1.165,1.085-1.747,1.904-1.747,2.452c0,0.308,0.148,0.462,0.445,0.462
		c0.491,0,1.336-0.476,2.535-1.427c0.206-0.161,0.376-0.241,0.513-0.241c0.091,0,0.183,0.053,0.274,0.161
		c0.103,0.12,0.154,0.248,0.154,0.381c0,0.402-0.479,1.019-1.438,1.849c-1.005,0.885-1.958,1.327-2.86,1.327
		c-0.366,0-0.702-0.113-1.01-0.341c-0.262-0.188-0.395-0.523-0.395-1.005c0-0.333,0.121-0.716,0.36-1.146
		c-0.902,0.75-1.964,2.037-3.185,3.858c-0.708,1.125-1.41,2.512-2.106,4.159c-0.262,0.618-0.588,0.924-0.977,0.924
		c-0.423,0-0.634-0.232-0.634-0.703c0-0.456,0.331-1.674,0.993-3.658c0.982-2.945,2.009-5.229,3.082-6.852
		c0.663-1.004,1.216-1.508,1.661-1.508c0.149,0,0.286,0.055,0.411,0.161c0.148,0.134,0.223,0.302,0.223,0.503
		c0,0.2-0.114,0.482-0.342,0.844c-0.046,0.067-0.349,0.515-0.908,1.346C23.898,33.908,23.504,34.693,23.23,35.468z"/>
	<path d="M31.889,35.41c-0.343,1.043-0.599,1.888-0.771,2.531c-0.171,0.645-0.257,1.093-0.257,1.348
		c0,0.335,0.138,0.502,0.412,0.502c0.411,0,0.942-0.455,1.592-1.367c0.309-0.441,0.765-1.239,1.371-2.391
		c0.24-0.456,0.491-0.684,0.753-0.684c0.296,0,0.445,0.169,0.445,0.503c0,0.575-0.566,1.741-1.695,3.496
		c-1.176,1.836-2.267,2.753-3.271,2.753c-0.434,0-0.788-0.214-1.062-0.645c-0.194-0.306-0.291-0.682-0.291-1.124
		c0-0.75,0.194-1.787,0.582-3.115c0.388-1.325,0.964-2.94,1.729-4.842c1.964-4.837,3.968-8.822,6.011-11.958
		c1.632-2.519,2.985-3.778,4.058-3.778c0.343,0,0.623,0.154,0.839,0.462c0.229,0.308,0.342,0.663,0.342,1.065
		c0,1.876-1.427,4.997-4.282,9.365c-1.278,1.943-2.808,3.886-4.589,5.827C33.339,33.869,32.7,34.551,31.889,35.41z M33.105,32.213
		c2.374-2.385,4.499-5.399,6.37-9.043c0.971-1.889,1.456-3.141,1.456-3.758c0-0.295-0.108-0.442-0.326-0.442
		c-0.627,0-1.769,1.468-3.425,4.401C35.811,25.783,34.452,28.73,33.105,32.213z"/>
	<path d="M41.764,30.344c1.142-2.8,2.221-5.238,3.237-7.315c0.982-2.01,1.65-3.276,2.003-3.798c0.388-0.576,0.753-0.864,1.096-0.864
		c0.183,0,0.349,0.087,0.497,0.261c0.137,0.174,0.206,0.362,0.206,0.563c0,0.31-0.194,0.825-0.582,1.549
		c-1.655,3.134-3.174,6.316-4.556,9.545c-1.598,3.766-2.397,6.586-2.397,8.46c0,0.765,0.125,1.366,0.376,1.809
		c0.046,0.093,0.251,0.309,0.617,0.645c0.068,0.066,0.103,0.199,0.103,0.4c0,0.269-0.088,0.513-0.266,0.734
		c-0.177,0.22-0.374,0.332-0.591,0.332c-0.262,0-0.553-0.188-0.873-0.563c-0.458-0.536-0.731-1.151-0.822-1.849
		c-0.035-0.295-0.075-0.844-0.12-1.647c-1.199,2.532-2.34,3.799-3.425,3.799c-0.628,0-1.131-0.416-1.507-1.247
		c-0.251-0.55-0.377-1.173-0.377-1.869c0-2.09,0.65-4.191,1.953-6.31c1.29-2.09,2.677-3.135,4.162-3.135
		C40.907,29.842,41.33,30.01,41.764,30.344z M41.181,31.993c-0.308-0.241-0.576-0.362-0.805-0.362c-0.958,0-1.866,0.689-2.723,2.069
		c-1.13,1.796-1.694,3.531-1.694,5.205c0,0.201,0.035,0.389,0.103,0.563c0.138,0.335,0.343,0.503,0.617,0.503
		c0.399,0,0.885-0.455,1.456-1.367c0.765-1.204,1.473-2.633,2.123-4.281c0.229-0.563,0.451-1.125,0.668-1.688l0.154-0.382
		L41.181,31.993z"/>
	<path d="M52.402,35.468c1.119-1.406,2.41-2.778,3.871-4.118c0.525-0.483,1.084-0.931,1.678-1.347
		c0.297-0.201,0.485-0.301,0.566-0.301c0.17,0,0.342,0.147,0.513,0.442c0.103,0.159,0.155,0.307,0.155,0.441
		c0,0.241-0.217,0.569-0.651,0.985c-1.164,1.085-1.747,1.904-1.747,2.452c0,0.308,0.149,0.462,0.445,0.462
		c0.491,0,1.336-0.476,2.535-1.427c0.206-0.161,0.376-0.241,0.514-0.241c0.09,0,0.182,0.053,0.273,0.161
		c0.103,0.12,0.154,0.248,0.154,0.381c0,0.402-0.479,1.019-1.439,1.849c-1.005,0.885-1.958,1.327-2.859,1.327
		c-0.367,0-0.703-0.113-1.011-0.341c-0.262-0.188-0.394-0.523-0.394-1.005c0-0.333,0.12-0.716,0.359-1.146
		c-0.901,0.75-1.963,2.037-3.185,3.858c-0.708,1.125-1.41,2.512-2.106,4.159c-0.262,0.618-0.587,0.924-0.976,0.924
		c-0.422,0-0.634-0.232-0.634-0.703c0-0.456,0.331-1.674,0.993-3.658c0.982-2.945,2.009-5.229,3.083-6.852
		c0.662-1.004,1.216-1.508,1.661-1.508c0.148,0,0.286,0.055,0.411,0.161c0.149,0.134,0.223,0.302,0.223,0.503
		c0,0.2-0.114,0.482-0.342,0.844c-0.045,0.067-0.349,0.515-0.908,1.346C53.07,33.908,52.676,34.693,52.402,35.468z"/>
	<path d="M59.588,38.223v0.36c0,0.296,0.063,0.55,0.189,0.765c0.286,0.495,0.754,0.745,1.404,0.745c1.427,0,3.078-1.287,4.95-3.859
		c0.33-0.442,0.61-0.664,0.839-0.664c0.125,0,0.239,0.073,0.342,0.219c0.068,0.108,0.103,0.209,0.103,0.304
		c0,0.521-0.547,1.406-1.644,2.651c-0.856,0.979-1.77,1.776-2.74,2.393c-0.971,0.614-1.873,0.924-2.706,0.924
		c-0.856,0-1.53-0.349-2.021-1.046c-0.331-0.481-0.497-1.137-0.497-1.969c0-2.264,0.908-4.481,2.723-6.652
		c1.474-1.769,2.758-2.652,3.854-2.652c0.295,0,0.564,0.107,0.804,0.321c0.296,0.281,0.445,0.65,0.445,1.104
		c0,0.711-0.279,1.582-0.839,2.612C63.641,35.924,61.905,37.406,59.588,38.223z M59.964,36.654c0.799-0.321,1.427-0.683,1.884-1.084
		c0.799-0.723,1.434-1.542,1.901-2.452c0.171-0.322,0.257-0.61,0.257-0.864c0-0.267-0.108-0.401-0.326-0.401
		c-0.296,0-0.718,0.261-1.267,0.784C61.433,33.561,60.615,34.899,59.964,36.654z"/>
	<path d="M68.95,32.595c1.747-4.421,3.454-8.019,5.121-10.792c1.131-1.876,2.067-3.242,2.808-4.1
		c0.514-0.602,0.954-0.903,1.319-0.903c0.138,0,0.256,0.053,0.36,0.16c0.158,0.134,0.238,0.315,0.238,0.543
		c0,0.295-0.199,0.717-0.599,1.266c-2.523,3.375-4.807,7.422-6.85,12.138c1.827-0.817,3.099-1.227,3.818-1.227
		c0.525,0,0.96,0.155,1.302,0.463C76.822,30.465,77,30.834,77,31.249c0,0.215-0.063,0.41-0.189,0.584
		c-0.172,0.255-0.394,0.381-0.668,0.381c-0.193,0-0.575-0.187-1.147-0.563c-0.159-0.092-0.366-0.14-0.617-0.14
		c-1.141,0-2.512,0.609-4.11,1.83c0.685,0.375,1.17,0.871,1.456,1.487c0.389,0.871,0.582,1.944,0.582,3.215
		c0,3.284-0.833,6.746-2.5,10.39c-0.718,1.555-1.415,2.733-2.089,3.538c-0.718,0.87-1.456,1.308-2.209,1.308
		c-0.571,0-1.033-0.324-1.388-0.967c-0.286-0.536-0.428-1.266-0.428-2.19c0-1.982,0.64-4.963,1.918-8.943
		c0.159-0.481,0.616-1.722,1.37-3.717c0.194-0.494,0.383-1.024,0.566-1.588c-0.091,0.028-0.178,0.041-0.258,0.041
		c-0.309,0-0.463-0.2-0.463-0.604C66.826,34.599,67.534,33.693,68.95,32.595z M69.532,35.227c-0.64,1.421-1.484,3.711-2.535,6.873
		c-1.085,3.229-1.627,5.732-1.627,7.516c0,0.35,0.074,0.656,0.222,0.926c0.16,0.267,0.349,0.401,0.566,0.401
		c0.708,0,1.638-1.394,2.791-4.181c1.302-3.109,1.953-5.954,1.953-8.539c0-1.006-0.166-1.762-0.497-2.272
		C70.28,35.751,69.989,35.508,69.532,35.227z"/>
	<path d="M78.105,39.006c-0.491,0.803-0.926,1.446-1.302,1.929c-0.662,0.856-1.319,1.286-1.971,1.286
		c-0.559,0-0.992-0.295-1.301-0.885c-0.217-0.414-0.325-0.911-0.325-1.487c0-1.727,0.628-3.711,1.884-5.949
		c0.582-1.044,1.159-1.841,1.729-2.391c0.444-0.441,0.811-0.663,1.096-0.663c0.159,0,0.309,0.08,0.446,0.241
		c0.112,0.148,0.17,0.295,0.17,0.443c0,0.254-0.211,0.669-0.633,1.245c-0.949,1.328-1.667,2.545-2.158,3.657
		c-0.571,1.301-0.856,2.319-0.856,3.056c0,0.187,0.037,0.331,0.111,0.433c0.074,0.099,0.18,0.15,0.316,0.15
		c0.582,0,1.393-0.979,2.433-2.936c0.537-1.018,0.998-2.144,1.386-3.375c0.207-0.669,0.474-1.266,0.806-1.788
		c0.319-0.469,0.633-0.705,0.942-0.705c0.17,0,0.326,0.088,0.463,0.26c0.147,0.188,0.222,0.396,0.222,0.624
		c0,0.483-0.394,1.567-1.181,3.256c-0.537,1.165-0.806,2.136-0.806,2.912c0,0.832,0.188,1.542,0.566,2.132
		c0.103,0.16,0.416,0.415,0.942,0.764c0.25,0.174,0.375,0.456,0.375,0.845c0,0.24-0.088,0.448-0.265,0.623
		c-0.178,0.174-0.392,0.261-0.644,0.261c-0.569,0-1.09-0.268-1.558-0.805c-0.422-0.482-0.69-1.179-0.806-2.088
		C78.167,39.931,78.139,39.583,78.105,39.006z"/>
	<path d="M85.803,40.353c1.222-1.046,2.13-1.998,2.724-2.854c0.88-1.245,1.503-2.257,1.867-3.035
		c0.183-0.349,0.371-0.521,0.564-0.521c0.274,0,0.411,0.153,0.411,0.461c0,0.362-0.217,0.965-0.651,1.808
		c-1.347,2.574-3.367,4.816-6.063,6.732c-1.254,3.082-2.181,5.17-2.773,6.269c-1.576,2.895-3.06,4.342-4.453,4.342
		c-0.73,0-1.256-0.335-1.574-1.004c-0.184-0.389-0.275-0.832-0.275-1.327c0-2.104,1.153-4.12,3.46-6.048
		c0.365-0.322,1.845-1.327,4.436-3.016c0.502-1.244,0.892-2.223,1.166-2.932c-1.198,1.472-2.192,2.208-2.979,2.208
		c-0.492,0-0.873-0.294-1.148-0.884c-0.17-0.389-0.258-0.789-0.258-1.204c0-0.965,0.338-2.203,1.013-3.718
		c0.957-2.183,2.11-3.913,3.459-5.186c1.13-1.058,2.13-1.587,2.997-1.587c0.444,0,0.828,0.194,1.147,0.583
		c0.218,0.255,0.326,0.63,0.326,1.125c0,0.617-0.179,1.381-0.531,2.292c0.263,0.294,0.394,0.515,0.394,0.664
		c0,0.094-0.058,0.228-0.17,0.402c-0.31,0.495-0.808,1.426-1.49,2.793C86.792,37.908,86.26,39.121,85.803,40.353z M82.449,44.494
		c-1.507,0.749-2.837,1.887-3.991,3.415c-0.537,0.708-0.918,1.46-1.146,2.25c-0.069,0.241-0.103,0.441-0.103,0.604
		c0,0.174,0.033,0.327,0.103,0.461c0.125,0.241,0.301,0.36,0.53,0.36c0.709,0,1.535-0.891,2.483-2.672
		C81.145,47.373,81.854,45.899,82.449,44.494z M85.685,35.711c-0.16-0.203-0.24-0.343-0.24-0.424c0-0.12,0.086-0.273,0.258-0.462
		c0.57-0.642,1.033-1.313,1.386-2.01c0.287-0.549,0.429-0.978,0.429-1.286c0-0.363-0.142-0.543-0.429-0.543
		c-0.489,0-1.192,0.549-2.104,1.647c-1.087,1.3-1.931,2.754-2.535,4.361c-0.296,0.804-0.445,1.421-0.445,1.848
		c0,0.243,0.045,0.424,0.138,0.544c0.09,0.12,0.224,0.181,0.394,0.181c0.399,0,0.959-0.481,1.679-1.448
		c0.457-0.615,0.844-1.217,1.166-1.808C85.594,35.924,85.697,35.724,85.685,35.711z"/>
	<path d="M90.97,38.223v0.36c0,0.296,0.062,0.55,0.188,0.765c0.285,0.495,0.752,0.745,1.406,0.745c1.427,0,3.074-1.287,4.947-3.859
		c0.332-0.442,0.611-0.664,0.841-0.664c0.125,0,0.239,0.073,0.342,0.219c0.068,0.108,0.103,0.209,0.103,0.304
		c0,0.521-0.547,1.406-1.644,2.651c-0.856,0.979-1.771,1.776-2.74,2.393c-0.972,0.614-1.873,0.924-2.705,0.924
		c-0.857,0-1.531-0.349-2.021-1.046c-0.332-0.481-0.498-1.137-0.498-1.969c0-2.264,0.908-4.481,2.725-6.652
		c1.474-1.769,2.756-2.652,3.853-2.652c0.297,0,0.565,0.107,0.806,0.321c0.295,0.281,0.444,0.65,0.444,1.104
		c0,0.711-0.28,1.582-0.84,2.612C95.022,35.924,93.287,37.406,90.97,38.223z M91.347,36.654c0.8-0.321,1.427-0.683,1.884-1.084
		c0.8-0.723,1.433-1.542,1.9-2.452c0.172-0.322,0.258-0.61,0.258-0.864c0-0.267-0.108-0.401-0.326-0.401
		c-0.297,0-0.719,0.261-1.269,0.784C92.813,33.561,91.998,34.899,91.347,36.654z"/>
	<path d="M98.84,38.223v0.36c0,0.296,0.063,0.55,0.188,0.765c0.285,0.495,0.755,0.745,1.404,0.745c1.429,0,3.078-1.287,4.951-3.859
		c0.33-0.442,0.609-0.664,0.839-0.664c0.125,0,0.239,0.073,0.342,0.219c0.068,0.108,0.103,0.209,0.103,0.304
		c0,0.521-0.547,1.406-1.644,2.651c-0.856,0.979-1.771,1.776-2.74,2.393c-0.97,0.614-1.871,0.924-2.705,0.924
		c-0.856,0-1.531-0.349-2.021-1.046c-0.329-0.481-0.495-1.137-0.495-1.969c0-2.264,0.905-4.481,2.722-6.652
		c1.474-1.769,2.756-2.652,3.853-2.652c0.298,0,0.566,0.107,0.806,0.321c0.295,0.281,0.444,0.65,0.444,1.104
		c0,0.711-0.278,1.582-0.838,2.612C102.892,35.924,101.159,37.406,98.84,38.223z M99.217,36.654c0.8-0.321,1.427-0.683,1.884-1.084
		c0.8-0.723,1.433-1.542,1.902-2.452c0.17-0.322,0.256-0.61,0.256-0.864c0-0.267-0.108-0.401-0.326-0.401
		c-0.297,0-0.719,0.261-1.267,0.784C100.685,33.561,99.868,34.899,99.217,36.654z"/>
	<path d="M113.237,28.737c0.709,0,1.237,0.148,1.592,0.442c0.354,0.295,0.531,0.744,0.531,1.346c0,0.792-0.25,1.553-0.752,2.291
		c-0.479,0.697-1.199,1.259-2.158,1.688c-0.524,0.228-0.966,0.343-1.318,0.343c-0.479,0-0.719-0.249-0.719-0.744
		c0-0.336,0.135-0.59,0.409-0.766c0.07-0.04,0.457-0.153,1.167-0.341c0.422-0.108,0.81-0.343,1.164-0.704
		c0.307-0.308,0.463-0.644,0.463-1.004c0-0.282-0.067-0.489-0.205-0.624c-0.138-0.133-0.342-0.201-0.617-0.201
		c-0.661,0-1.394,0.315-2.192,0.945c-0.925,0.711-1.386,1.553-1.386,2.533c0,0.696,0.302,1.566,0.906,2.612
		c0.674,1.137,1.01,2.103,1.01,2.892c0,1.18-0.444,2.104-1.336,2.773c-0.547,0.416-1.168,0.623-1.865,0.623
		c-1.097,0-1.931-0.462-2.5-1.386c-0.4-0.656-0.601-1.435-0.601-2.332c0-1.045,0.228-1.921,0.685-2.633
		c0.297-0.468,0.606-0.703,0.924-0.703c0.287,0,0.431,0.134,0.431,0.402c0,0.106-0.054,0.27-0.156,0.482
		c-0.262,0.576-0.393,1.253-0.393,2.03c0,0.656,0.198,1.213,0.598,1.667c0.354,0.402,0.759,0.604,1.218,0.604
		c0.444,0,0.793-0.174,1.043-0.523c0.207-0.294,0.31-0.67,0.31-1.124c0-0.564-0.274-1.294-0.821-2.191
		c-0.755-1.233-1.132-2.352-1.132-3.356c0-1.339,0.621-2.527,1.867-3.558C110.611,29.232,111.89,28.737,113.237,28.737z"/>
</g>
</svg>
