<?xml version="1.0" encoding="utf-8"?>
<!-- Generator: Adobe Illustrator 16.0.0, SVG Export Plug-In . SVG Version: 6.00 Build 0)  -->
<!DOCTYPE svg PUBLIC "-//W3C//DTD SVG 1.1//EN" "../../../../www.w3.org/Graphics/SVG/1.1/DTD/svg11.dtd">
<svg version="1.1" id="Layer_1" xmlns="http://www.w3.org/2000/svg" xmlns:xlink="../../../../www.w3.org/1999/xlink" x="0px" y="0px"
	 width="117.917px" height="69.333px" viewBox="0 0 117.917 69.333" enable-background="new 0 0 117.917 69.333"
	 xml:space="preserve">
<g>
	<path d="M6.083,28.041V14.879h2.779l5.244,9.042v-9.042h2.622V28.04h-2.745l-5.277-9.042v9.042L6.083,28.041L6.083,28.041z"/>
	<path d="M22.887,14.879h3.069l4.656,13.161h-2.788l-0.877-2.707h-5.006L21.09,28.04h-2.797L22.887,14.879z M24.432,17.516
		l-1.789,5.602h3.586L24.432,17.516z"/>
	<path d="M34.213,28.041V17.229h-3.831v-2.35h10.292v2.35H36.87V28.04L34.213,28.041L34.213,28.041z"/>
	<path d="M42.531,28.041V14.879h2.656V28.04L42.531,28.041L42.531,28.041z"/>
	<path d="M47.631,21.474c0-2.127,0.568-3.814,1.704-5.061c1.138-1.248,2.671-1.873,4.6-1.873c1.929,0,3.465,0.626,4.607,1.876
		c1.144,1.251,1.714,2.937,1.714,5.057c0,2.121-0.571,3.807-1.714,5.057c-1.143,1.251-2.679,1.876-4.607,1.876
		c-1.928,0-3.462-0.625-4.6-1.876C48.199,25.28,47.631,23.595,47.631,21.474z M50.34,21.474c0,1.448,0.315,2.572,0.947,3.373
		c0.631,0.801,1.513,1.201,2.647,1.201c1.145,0,2.037-0.4,2.674-1.201c0.637-0.801,0.956-1.925,0.956-3.373
		c0-1.448-0.318-2.572-0.956-3.373c-0.637-0.801-1.529-1.202-2.674-1.202c-1.134,0-2.016,0.4-2.647,1.198
		C50.655,18.895,50.34,20.021,50.34,21.474z"/>
	<path d="M62.594,28.041V14.879h2.777l5.244,9.042v-9.042h2.622V28.04h-2.745l-5.277-9.042v9.042L62.594,28.041L62.594,28.041z"/>
	<path d="M79.398,14.879h3.069l4.656,13.161h-2.789l-0.877-2.707h-5.006l-0.85,2.707h-2.797L79.398,14.879z M80.942,17.516
		l-1.789,5.602h3.586L80.942,17.516z"/>
	<path d="M88.69,28.041V14.879h2.657v10.73h6.304v2.431L88.69,28.041L88.69,28.041z"/>
	<path d="M24.937,43.45V30.289h2.657V41.02h6.304v2.43H24.937z"/>
	<path d="M35.587,43.45V30.289h9.381v2.288h-6.759v2.804h6.181v2.25h-6.181v3.388h7.075v2.431H35.587L35.587,43.45z"/>
	<path d="M50.804,30.289h3.069l4.655,13.161H55.74l-0.876-2.707h-5.007l-0.85,2.707h-2.798L50.804,30.289z M52.348,32.924
		l-1.789,5.602h3.585L52.348,32.924z"/>
	<path d="M69.389,41.896c-0.479,0.661-1.023,1.146-1.635,1.456c-0.61,0.311-1.328,0.465-2.152,0.465
		c-1.807,0-3.27-0.641-4.389-1.917c-1.119-1.278-1.678-2.956-1.678-5.034c0-2.097,0.557-3.774,1.674-5.031
		c1.117-1.256,2.604-1.885,4.463-1.885c1.619,0,2.939,0.395,3.961,1.184c1.023,0.79,1.632,1.876,1.826,3.257H68.75
		c-0.164-0.685-0.5-1.206-1.006-1.563c-0.504-0.357-1.164-0.536-1.977-0.536c-1.081,0-1.93,0.403-2.548,1.21
		c-0.616,0.807-0.925,1.922-0.925,3.346c0,1.429,0.322,2.55,0.966,3.359c0.643,0.812,1.524,1.215,2.647,1.215
		c0.84,0,1.545-0.252,2.112-0.76c0.567-0.506,0.917-1.199,1.052-2.082h-2.928v-2.25h5.348v7.121h-1.779L69.389,41.896z"/>
	<path d="M74.2,30.254h2.684v8.254c0,1.02,0.199,1.763,0.596,2.229c0.396,0.468,1.029,0.702,1.893,0.702
		c0.877,0,1.517-0.232,1.918-0.697c0.399-0.464,0.601-1.207,0.601-2.232v-8.255h2.657v8.55c0,1.613-0.443,2.854-1.328,3.716
		c-0.887,0.864-2.162,1.296-3.829,1.296c-1.677,0-2.961-0.432-3.853-1.291c-0.893-0.861-1.338-2.104-1.338-3.722V30.254z"/>
	<path d="M87.383,43.45V30.289h9.382v2.288h-6.761v2.804h6.182v2.25h-6.182v3.388h7.076v2.431H87.383L87.383,43.45z"/>
	<path d="M43.118,52.292c0-2.127,0.568-3.813,1.706-5.062c1.137-1.247,2.669-1.872,4.599-1.872c1.928,0,3.464,0.625,4.607,1.876
		c1.143,1.25,1.714,2.937,1.714,5.058s-0.571,3.806-1.714,5.057c-1.143,1.251-2.679,1.876-4.607,1.876
		c-1.93,0-3.462-0.625-4.599-1.876C43.687,56.098,43.118,54.413,43.118,52.292z M45.827,52.292c0,1.449,0.315,2.572,0.947,3.373
		c0.631,0.801,1.513,1.203,2.648,1.203c1.145,0,2.037-0.4,2.674-1.203c0.636-0.801,0.955-1.924,0.955-3.373
		c0-1.447-0.319-2.57-0.955-3.373c-0.638-0.801-1.529-1.201-2.674-1.201c-1.136,0-2.017,0.4-2.648,1.197
		C46.143,49.713,45.827,50.838,45.827,52.292z"/>
	<path d="M58.082,58.859V45.698h9.013v2.287h-6.392v2.984h5.603v2.287h-5.603v5.604L58.082,58.859L58.082,58.859z"/>
	<path d="M74.392,58.859V45.698h2.78l5.244,9.043v-9.043h2.621V58.86h-2.746l-5.277-9.042v9.042L74.392,58.859L74.392,58.859z"/>
	<path d="M93.713,58.859h-2.655v-4.905l-4.69-8.256h3.252l2.762,5.674l2.552-5.674h3.032l-4.252,8.256V58.859z"/>
</g>
<rect x="103.833" y="10.917" fill="none" stroke="#000000" stroke-miterlimit="10" width="8" height="50.5"/>
</svg>
