<?xml version="1.0" encoding="utf-8"?>
<!-- Generator: Adobe Illustrator 16.0.0, SVG Export Plug-In . SVG Version: 6.00 Build 0)  -->
<!DOCTYPE svg PUBLIC "-//W3C//DTD SVG 1.1//EN" "../../../../www.w3.org/Graphics/SVG/1.1/DTD/svg11.dtd">
<svg version="1.1" id="Layer_1" xmlns="http://www.w3.org/2000/svg" xmlns:xlink="../../../../www.w3.org/1999/xlink" x="0px" y="0px"
	 width="117.917px" height="69.333px" viewBox="0 0 117.917 69.333" enable-background="new 0 0 117.917 69.333"
	 xml:space="preserve">
<rect x="16.751" y="18.612" fill="none" stroke="#000000" stroke-width="2" stroke-miterlimit="10" width="85.25" height="34.805"/>
<polygon fill="none" stroke="#000000" stroke-width="2" stroke-miterlimit="10" points="59.435,25.89 62.442,31.987 69.168,32.963 
	64.301,37.708 65.452,44.411 59.435,41.247 53.417,44.409 54.566,37.708 49.698,32.963 56.426,31.986 "/>
<polygon fill="none" stroke="#000000" stroke-width="2" stroke-miterlimit="10" points="83.963,25.89 86.971,31.987 93.702,32.963 
	88.833,37.708 89.981,44.411 83.963,41.247 77.948,44.409 79.094,37.708 74.227,32.963 80.956,31.986 "/>
<polygon fill="none" stroke="#000000" stroke-width="2" stroke-miterlimit="10" points="34.214,25.89 37.22,31.987 43.949,32.963 
	39.081,37.708 40.23,44.411 34.214,41.247 28.196,44.409 29.345,37.708 24.477,32.963 31.204,31.986 "/>
</svg>
