<?xml version="1.0" encoding="utf-8"?>
<!-- Generator: Adobe Illustrator 16.0.0, SVG Export Plug-In . SVG Version: 6.00 Build 0)  -->
<!DOCTYPE svg PUBLIC "-//W3C//DTD SVG 1.1//EN" "../../../../www.w3.org/Graphics/SVG/1.1/DTD/svg11.dtd">
<svg version="1.1" id="Layer_1" xmlns="http://www.w3.org/2000/svg" xmlns:xlink="../../../../www.w3.org/1999/xlink" x="0px" y="0px"
	 width="117.917px" height="69.333px" viewBox="0 0 117.917 69.333" enable-background="new 0 0 117.917 69.333"
	 xml:space="preserve">
<g>
	<path d="M47.561,33.073c0.057-0.593-0.245-1.284,0.336-1.652c0.445-0.281,1.05-0.308,1.653-0.465c0-3.875,0-7.85,0-11.863
		c1.341,0,2.635,0,3.997,0c0,3.987,0,7.973,0,11.982c0.697,0,1.327,0,2.023,0c0-3.988,0-7.974,0-11.99c1.36,0,2.656,0,4.001,0
		c0,3.995,0,7.968,0,11.978c0.691,0,1.332,0,2.022,0c0-3.976,0-7.951,0-11.967c1.341,0,2.634,0,3.994,0c0,3.979,0,7.963,0,11.976
		c0.697,0,1.326,0,2.021,0c0-3.982,0-7.967,0-11.984c1.361,0,2.655,0,4.016,0c0,4.001,0,7.988,0,11.989
		c0.67,0.077,1.436-0.182,1.797,0.483c0.228,0.417,0.191,0.977,0.281,1.513C64.917,33.073,56.264,33.073,47.561,33.073z"/>
	<path d="M47.51,17.038c-0.64,0-1.256,0-1.953,0c0-0.635-0.024-1.247,0.021-1.852c0.009-0.122,0.267-0.263,0.437-0.331
		c4.507-1.811,9.024-3.596,13.52-5.435c0.75-0.308,1.364-0.309,2.116-0.001c4.479,1.834,8.979,3.621,13.479,5.403
		c0.394,0.156,0.549,0.343,0.516,0.762c-0.035,0.463-0.008,0.93-0.008,1.438c-0.674,0-1.303,0-1.957,0
		c-0.188,0.825-0.738,1.031-1.494,1.03c-7.763-0.013-15.523-0.008-23.284-0.009C48.081,18.042,47.767,17.826,47.51,17.038z"/>
	<path d="M45.569,37.088c0-0.725-0.025-1.422,0.009-2.119c0.022-0.453,0.425-0.79,0.917-0.848c0.166-0.021,0.334-0.011,0.501-0.011
		c9.065,0,18.129,0,27.194,0c1.145,0,1.446,0.304,1.448,1.458c0,0.498,0,0.996,0,1.52C65.589,37.088,55.599,37.088,45.569,37.088z"
		/>
</g>
<g>
	<path d="M46.666,57.407h-0.653l-4.069-9.988l-3.805,9.988h-0.631l-5.123-12.695c-0.42-1.041-0.733-1.76-0.94-2.156
		c-0.206-0.398-0.42-0.66-0.642-0.787c-0.222-0.127-0.527-0.199-0.917-0.215V40.79h6.682v0.764c-0.55,0.016-0.942,0.094-1.175,0.232
		s-0.35,0.367-0.35,0.686c0,0.246,0.168,0.799,0.504,1.656l3.266,8.164l2.464-6.436l-0.768-1.824
		c-0.275-0.676-0.531-1.195-0.768-1.555c-0.237-0.363-0.499-0.607-0.785-0.734c-0.287-0.127-0.659-0.189-1.118-0.189V40.79h6.992
		v0.764c-0.062-0.008-0.149-0.012-0.264-0.012c-0.795,0-1.192,0.301-1.192,0.906c0,0.27,0.069,0.568,0.206,0.893l0.458,1.074
		l3.244,7.76l2.487-6.891c0.313-0.85,0.52-1.455,0.619-1.811c0.099-0.357,0.149-0.652,0.149-0.883c0-0.414-0.128-0.689-0.384-0.83
		c-0.256-0.139-0.712-0.207-1.37-0.207V40.79h4.688v0.764c-0.375,0.07-0.667,0.184-0.877,0.332c-0.21,0.152-0.399,0.395-0.567,0.729
		s-0.428,0.99-0.779,1.967L46.666,57.407z"/>
	<path d="M65.503,49.336l4.643,5.699c0.313,0.381,0.661,0.654,1.043,0.822c0.382,0.166,0.904,0.273,1.57,0.322v0.773h-4.94
		l-5.846-7.199h-1.524v3.922c0,0.707,0.072,1.238,0.219,1.592c0.145,0.354,0.395,0.594,0.75,0.721
		c0.354,0.127,0.902,0.189,1.645,0.189v0.775h-8.367v-0.775c0.741,0,1.286-0.064,1.633-0.197c0.348-0.131,0.59-0.371,0.728-0.721
		c0.138-0.35,0.207-0.879,0.207-1.586V43.77c0-0.859-0.178-1.445-0.533-1.758c-0.355-0.314-0.912-0.473-1.668-0.473
		c-0.076,0-0.142,0.002-0.195,0.006c-0.054,0.004-0.111,0.006-0.172,0.006V40.79h9.124c0.802,0,1.543,0.076,2.224,0.227
		c0.68,0.15,1.283,0.395,1.811,0.727c0.527,0.334,0.934,0.764,1.221,1.289s0.43,1.152,0.43,1.883c0,1.057-0.371,1.994-1.111,2.813
		C67.65,48.545,66.688,49.083,65.503,49.336z M60.45,48.502h1.879c1.139,0,2.019-0.318,2.642-0.955
		c0.622-0.635,0.934-1.426,0.934-2.371c0-0.492-0.083-0.93-0.247-1.311c-0.164-0.383-0.398-0.709-0.705-0.984
		c-0.306-0.273-0.674-0.484-1.105-0.631s-0.922-0.221-1.473-0.221c-0.818,0-1.459,0.105-1.926,0.322v6.15H60.45z"/>
	<path d="M88.984,40.79l0.205,3.947h-0.777c-0.131-0.541-0.293-0.996-0.488-1.365s-0.416-0.646-0.664-0.834
		s-0.529-0.311-0.842-0.371c-0.314-0.059-0.703-0.088-1.17-0.088h-5.25v5.721h4.023c0.504,0,0.902-0.059,1.197-0.178
		s0.514-0.348,0.66-0.686c0.145-0.338,0.217-0.816,0.217-1.438h0.791v5.793h-0.791c0-0.85-0.152-1.428-0.457-1.732
		c-0.307-0.307-0.791-0.459-1.457-0.459h-4.184v4.576c0,0.66,0.064,1.172,0.195,1.533c0.129,0.361,0.352,0.613,0.664,0.756
		c0.314,0.145,0.77,0.215,1.365,0.215h0.904v0.775h-9.135V56.18h0.631c0.58,0,1.026-0.07,1.334-0.215
		c0.309-0.143,0.529-0.395,0.66-0.756c0.129-0.361,0.193-0.873,0.193-1.533v-9.643c0-0.652-0.064-1.156-0.193-1.514
		c-0.131-0.359-0.35-0.609-0.66-0.752s-0.754-0.213-1.334-0.213h-0.631v-0.764h14.993V40.79z"/>
</g>
</svg>
