<?xml version="1.0" encoding="utf-8"?>
<!-- Generator: Adobe Illustrator 16.0.0, SVG Export Plug-In . SVG Version: 6.00 Build 0)  -->
<!DOCTYPE svg PUBLIC "-//W3C//DTD SVG 1.1//EN" "../../../../www.w3.org/Graphics/SVG/1.1/DTD/svg11.dtd">
<svg version="1.1" id="Layer_1" xmlns="http://www.w3.org/2000/svg" xmlns:xlink="../../../../www.w3.org/1999/xlink" x="0px" y="0px"
	 width="117.917px" height="69.333px" viewBox="0 0 117.917 69.333" enable-background="new 0 0 117.917 69.333"
	 xml:space="preserve">
<g>
	<path fill="#010101" d="M29.707,29.093c0.604-1.269,0.813-2.687,0.621-4.257c-0.221-1.57-0.965-2.453-2.233-2.648
		c-1.269-0.219-2.304-0.117-3.099,0.312c-0.801,0.428-1.327,1.189-1.572,2.296c-0.113,0.55-0.158,1.157-0.147,1.818
		c0.015,0.661,0.093,1.393,0.226,2.188c0.279,1.573,1.888,3.46,4.838,5.667c2.921,2.174,4.505,4.337,4.755,6.49
		c0.246,2.149,0.173,3.863-0.226,5.145c-0.401,1.281-0.99,2.266-1.76,2.955c-0.771,0.689-1.956,1.145-3.555,1.363
		c-5.018,0.799-7.371-2.383-7.069-9.549l3.017-0.041c-0.634,2.922-0.65,4.797-0.042,5.621c0.634,0.965,1.489,1.502,2.562,1.609
		c1.073,0.139,1.999-0.031,2.771-0.514c0.773-0.483,1.364-1.316,1.774-2.502c0.416-1.213,0.402-2.621-0.038-4.219
		c-0.413-1.598-1.971-3.414-4.671-5.455c-2.645-2.038-4.203-4.16-4.672-6.365c-0.441-2.205-0.451-4.003-0.041-5.394
		c0.411-1.392,0.976-2.363,1.691-2.912c0.747-0.551,1.661-0.892,2.748-1.015c1.09-0.125,2.171-0.047,3.246,0.227
		c1.101,0.277,1.947,0.729,2.542,1.366c0.591,0.633,0.999,1.472,1.218,2.519c0.22,1.241,0.247,3.048,0.082,5.417L29.707,29.093z"/>
	<path fill="#010101" d="M41.528,34.136c-0.302,5.513,0.744,9.424,3.142,11.742c1.239,1.211,2.439,1.793,3.596,1.735
		c1.186-0.026,2.19-0.562,3.019-1.612c0.826-1.047,1.279-2.271,1.36-3.678c0.083-1.24-0.028-2.508-0.331-3.803l2.979,0.123
		c-0.056,1.462-0.264,3.158-0.621,5.087c-0.331,1.929-0.99,3.401-1.984,4.421c-0.965,0.993-2.206,1.573-3.72,1.738
		c-1.543,0.219-2.95-0.069-4.217-0.867c-1.323-0.8-2.401-1.859-3.227-3.186c-0.826-1.321-1.445-2.781-1.859-4.379
		c-0.385-1.627-0.551-3.973-0.495-7.029c0.056-3.057,0.179-5.222,0.372-6.49c0.111-0.937,0.336-1.846,0.679-2.73
		c0.346-0.88,0.782-1.675,1.303-2.375c0.524-0.702,1.136-1.305,1.842-1.8c0.701-0.496,1.481-0.826,2.336-0.993
		c0.828-0.219,1.683-0.282,2.564-0.187c0.881,0.097,1.708,0.353,2.479,0.768c0.773,0.411,1.435,1.004,1.982,1.775
		c0.554,0.775,0.928,1.739,1.119,2.897c0.303,1.431,0.489,2.872,0.557,4.317c0.07,1.445,0.117,2.955,0.146,4.524H41.528V34.136z
		 M52.027,31.78c0.083-1.27,0.062-2.453-0.06-3.561c-0.123-1.1-0.319-2.066-0.58-2.894c-0.264-0.826-0.589-1.511-0.972-2.045
		c-0.385-0.538-0.797-0.891-1.239-1.056c-0.884-0.382-1.886-0.427-3.016-0.125c-1.132,0.305-1.959,0.867-2.48,1.696
		c-0.389,0.58-0.713,1.211-0.974,1.903c-0.26,0.688-0.476,1.392-0.643,2.105c-0.164,0.718-0.281,1.421-0.349,2.11
		c-0.068,0.691-0.102,1.308-0.102,1.86h10.416v0.003h-0.001V31.78z"/>
	<path fill="#010101" d="M63.396,34.136c-0.305,5.513,0.744,9.424,3.143,11.742c1.238,1.211,2.438,1.793,3.596,1.735
		c1.184-0.026,2.191-0.562,3.019-1.612c0.826-1.047,1.279-2.271,1.36-3.678c0.086-1.24-0.028-2.508-0.331-3.803l2.979,0.123
		c-0.057,1.462-0.268,3.158-0.621,5.087c-0.332,1.929-0.994,3.401-1.984,4.421c-0.965,0.993-2.207,1.573-3.721,1.738
		c-1.543,0.219-2.951-0.069-4.217-0.867c-1.322-0.8-2.396-1.859-3.224-3.186c-0.827-1.321-1.448-2.781-1.858-4.379
		c-0.387-1.627-0.551-3.973-0.498-7.029c0.055-3.057,0.178-5.222,0.375-6.49c0.106-0.937,0.334-1.846,0.68-2.73
		c0.345-0.88,0.779-1.675,1.303-2.375c0.523-0.702,1.133-1.305,1.839-1.8c0.703-0.496,1.481-0.826,2.336-0.993
		c0.829-0.219,1.683-0.282,2.565-0.187c0.88,0.097,1.71,0.353,2.48,0.768c0.771,0.411,1.434,1.004,1.981,1.775
		c0.551,0.775,0.925,1.739,1.116,2.897c0.305,1.431,0.488,2.872,0.559,4.317c0.066,1.445,0.117,2.955,0.145,4.524H63.396V34.136z
		 M73.897,31.78c0.082-1.27,0.06-2.453-0.062-3.561c-0.127-1.1-0.318-2.066-0.58-2.894c-0.264-0.826-0.586-1.511-0.973-2.045
		c-0.383-0.538-0.799-0.891-1.238-1.056c-0.883-0.382-1.889-0.427-3.019-0.125c-1.129,0.305-1.956,0.867-2.479,1.696
		c-0.387,0.58-0.711,1.211-0.969,1.903c-0.264,0.688-0.478,1.392-0.644,2.105c-0.166,0.718-0.283,1.421-0.351,2.11
		c-0.068,0.691-0.103,1.308-0.103,1.86h10.416V31.78L73.897,31.78z"/>
	<path fill="#010101" d="M86.585,20.081c2.012,0.054,3.461,0.22,4.344,0.496c0.91,0.305,1.902,0.843,2.975,1.611
		c1.076,0.801,1.984,1.999,2.729,3.598c0.744,1.626,1.279,4.228,1.609,7.813c0.332,3.61-0.041,6.767-1.113,9.465
		c-1.047,2.7-2.412,4.522-4.094,5.458c-1.596,0.938-3.514,1.406-5.744,1.406l-3.723-0.043c0.086-2.398,0.105-4.828,0.063-7.297
		c-0.041-2.465-0.104-4.953-0.186-7.459c-0.082-2.507-0.164-5.015-0.248-7.524c-0.082-2.508-0.125-5.001-0.125-7.481L86.585,20.081z
		 M85.429,22.561c0.031,2.288,0.08,4.505,0.154,6.658c0.072,2.15,0.146,4.264,0.221,6.343c0.072,2.083,0.133,4.136,0.174,6.159
		c0.045,2.027,0.053,4.045,0.027,6.056c0.717,0.167,1.82,0.14,3.309-0.081c0.965-0.164,1.895-0.564,2.791-1.199
		c0.891-0.629,1.666-1.488,2.314-2.563c0.646-1.075,1.145-2.371,1.486-3.885c0.344-1.518,0.461-3.241,0.354-5.168
		c-0.031-1.326-0.092-2.452-0.188-3.392c-0.1-0.937-0.217-1.721-0.355-2.354c-0.305-1.27-0.813-2.4-1.531-3.391
		c-0.666-0.993-1.662-1.844-2.992-2.562C89.898,22.465,87.974,22.256,85.429,22.561z"/>
</g>
</svg>
