<?xml version="1.0" encoding="utf-8"?>
<!-- Generator: Adobe Illustrator 16.0.0, SVG Export Plug-In . SVG Version: 6.00 Build 0)  -->
<!DOCTYPE svg PUBLIC "-//W3C//DTD SVG 1.1//EN" "../../../../www.w3.org/Graphics/SVG/1.1/DTD/svg11.dtd">
<svg version="1.1" id="Layer_1" xmlns="http://www.w3.org/2000/svg" xmlns:xlink="../../../../www.w3.org/1999/xlink" x="0px" y="0px"
	 width="117.917px" height="69.333px" viewBox="0 0 117.917 69.333" enable-background="new 0 0 117.917 69.333"
	 xml:space="preserve">
<path fill="#6D6E71" d="M17.987,25.559c-0.559-0.309-2.158-0.118-4.08,0.477c-3.362,2.298-6.201,5.685-6.399,11.123
	c-0.036,0.131-0.368-0.018-0.434-0.057c-0.908-1.742-1.267-3.574-0.509-6.218c0.142-0.235-0.32-0.526-0.404-0.442
	c-0.167,0.167-0.86,0.906-1.32,1.705c-2.285,3.961-0.791,9.04,3.206,11.26c3.995,2.225,9.04,0.791,11.264-3.207
	C21.886,35.588,19.496,26.402,17.987,25.559L17.987,25.559z"/>
<path fill="#010101" d="M32.288,27.772c-4.737,0-8.176,3.522-8.176,8.375c0,4.891,3.429,8.309,8.341,8.309
	c2.481,0,4.444-0.777,6.006-2.371c0.467-0.504,0.517-0.99,0.517-1.176c0-0.791-0.588-1.365-1.398-1.365
	c-0.408,0-0.75,0.154-1.142,0.518c-0.884,0.824-2.049,1.664-3.982,1.664c-2.688,0-4.875-2.018-5.012-4.609h10.7
	c1.163,0,1.728-0.543,1.728-1.662c0-0.329,0-0.566-0.065-1.037C39.226,30.257,36.417,27.773,32.288,27.772L32.288,27.772z
	 M32.288,30.371c2.569,0,4.216,1.636,4.318,4.28h-9.162C27.685,32.204,29.752,30.371,32.288,30.371L32.288,30.371z"/>
<path fill="#010101" d="M50.084,27.772c-2.152,0-4.283,1.238-5.115,2.957v-1.062c0-1.646-1.275-1.729-1.53-1.729
	c-0.756,0-1.563,0.455-1.563,1.729v12.827c0,1.709,1.357,1.797,1.63,1.797c0.271,0,1.629-0.088,1.629-1.797V35.62
	c0-2.994,1.696-5.083,4.124-5.083c2.351,0,3.495,1.543,3.495,4.718v7.24c0,1.709,1.358,1.795,1.629,1.795
	c0.272,0,1.63-0.086,1.63-1.795V34.23c0-3.121-1.558-6.456-5.928-6.456L50.084,27.772L50.084,27.772z"/>
<path fill="#010101" d="M70.758,27.939c-0.753,0-1.299,0.439-1.624,1.303l-4.458,11.213l-4.426-11.213
	c-0.347-0.877-0.888-1.303-1.657-1.303c-0.899,0-1.63,0.701-1.63,1.563c0,0.214,0.024,0.49,0.204,0.922l5.125,12.1
	c0.61,1.459,1.615,1.768,2.351,1.768c0.735,0,1.739-0.309,2.353-1.766l5.158-12.167c0.177-0.426,0.203-0.74,0.203-0.889
	C72.354,28.597,71.668,27.939,70.758,27.939L70.758,27.939z"/>
<path fill="#010101" d="M80.233,27.772c-2.085,0-4.028,0.581-5.467,1.633c-0.488,0.337-0.728,0.758-0.728,1.286
	c0,0.728,0.558,1.298,1.268,1.298c0.308,0,0.652-0.122,0.969-0.344c1.237-0.825,2.4-1.21,3.66-1.21c2.409,0,3.793,1.225,3.793,3.362
	v0.355c-5.41,0.005-10.911,0.659-10.911,5.367c0,3.385,2.895,4.902,5.763,4.902c2.284,0,4.108-0.904,5.28-2.619v0.824
	c0,1.227,0.822,1.662,1.53,1.662c0.149,0,1.463-0.047,1.463-1.662v-8.63C86.851,30.099,84.378,27.772,80.233,27.772L80.233,27.772z
	 M83.042,36.553h0.686v0.752c0,2.746-1.75,4.521-4.455,4.521c-0.734,0-3.13-0.172-3.13-2.373
	C76.141,36.854,80.08,36.553,83.042,36.553z"/>
<path fill="#010101" d="M95.342,30.9c1.426,0,1.498-1.11,1.498-1.332c0-0.659-0.395-1.365-1.498-1.365h-2.934v-2.965
	c0-1.326-0.858-1.795-1.596-1.795c-0.271,0-1.629,0.086-1.629,1.795v14.083c0,3.252,1.603,4.971,4.637,4.971
	c0.786,0,1.551-0.139,2.052-0.371c0.572-0.289,0.902-0.758,0.902-1.291c0-0.754-0.547-1.301-1.3-1.301
	c-0.146,0-0.354,0.035-0.582,0.102c-0.279,0.07-0.468,0.098-0.674,0.098c-1.234,0-1.809-0.807-1.809-2.537v-8.092h2.933L95.342,30.9
	L95.342,30.9z"/>
<path fill="#010101" d="M106.119,27.772c-4.93,0-8.507,3.494-8.507,8.308c0,2.342,0.868,4.479,2.439,6.014
	c1.561,1.523,3.715,2.361,6.067,2.361c4.869,0,8.54-3.602,8.54-8.375C114.657,31.267,111.065,27.773,106.119,27.772L106.119,27.772z
	 M106.119,41.692c-3.382,0-5.149-2.822-5.149-5.611c0-3.832,2.67-5.578,5.149-5.578c2.478,0,5.148,1.746,5.148,5.578
	C111.265,39.936,108.596,41.692,106.119,41.692z"/>
</svg>
